<?xml version="1.0" encoding="utf-8"?>
<!-- Generator: Adobe Illustrator 21.1.0, SVG Export Plug-In . SVG Version: 6.00 Build 0)  -->
<svg version="1.1" id="Layer_1" xmlns="http://www.w3.org/2000/svg" xmlns:xlink="http://www.w3.org/1999/xlink" x="0px"
	y="0px" viewBox="0 0 250 155" style="enable-background:new 0 0 514 155;" xml:space="preserve">
	<style type="text/css">
		.st0 {
			fill: none;
			stroke: #F26722;
			stroke-width: 2;
			stroke-miterlimit: 10;
		}

		.st1 {
			fill: none;
			stroke: #000000;
			stroke-miterlimit: 10;
		}

		.st2 {
			fill: #F26722;
			stroke: #F26722;
			stroke-width: 2;
			stroke-miterlimit: 10;
		}

		.st3 {
			fill: #F26722;
			stroke: #F26722;
			stroke-miterlimit: 10;
		}

		.st4 {
			fill: #FFFFFF;
			stroke: #F26739;
			stroke-width: 2;
			stroke-miterlimit: 10;
		}

		.st5 {
			fill: none;
			stroke: #FFFFFF;
			stroke-miterlimit: 10;
		}

		.st6 {
			fill: #FFFFFF;
			stroke: #FFFFFF;
			stroke-miterlimit: 10;
		}

		.st7 {
			fill: #151514;
		}

		.st8 {
			fill: #F26722;
		}

		.st9 {
			clip-path: url(#SVGID_2_);
		}
	</style>
	<circle class="st0" cx="170.1" cy="77.7" r="63.8" />
	<circle class="st1" cx="170.1" cy="77.7" r="51.4" />
	<path class="st2" d="M221.5,77.7c0,28.4-23,51.4-51.4,51.4c-28.4,0-51.4-23-51.4-51.4c0-28.4,23-51.4,51.4-51.4
	C198.5,26.3,221.5,49.3,221.5,77.7z M170.1,35.2c-23.5,0-42.5,19-42.5,42.5c0,23.5,19,42.5,42.5,42.5c23.5,0,42.5-19,42.5-42.5
	C212.6,54.2,193.6,35.2,170.1,35.2z" />
	<circle class="st3" cx="170.1" cy="77.7" r="6.1" />
	<g>
		<path class="st3"
			d="M201.6,77.5c-0.3-12.4-8.5-23.8-21-27.6c-2.8-0.8-5.6-1.2-8.3-1.3C187.3,51.6,193.7,65.7,201.6,77.5z" />
	</g>
	<circle class="st2" cx="76.9" cy="77.5" r="63.8" />
	<circle class="st1" cx="76.9" cy="77.5" r="51.4" />
	<path class="st4" d="M128.3,77.5c0,28.4-23,51.4-51.4,51.4c-28.4,0-51.4-23-51.4-51.4c0-28.4,23-51.4,51.4-51.4
	C105.3,26.1,128.3,49.2,128.3,77.5z M76.9,35c-23.5,0-42.5,19-42.5,42.5c0,23.5,19,42.5,42.5,42.5c23.5,0,42.5-19,42.5-42.5
	C119.4,54.1,100.4,35,76.9,35z" />
	<circle class="st5" cx="76.9" cy="77.5" r="6.1" />
	<g>
		<path class="st6"
			d="M108.4,77.4c-0.3-12.4-8.5-23.8-21-27.6c-2.8-0.8-5.6-1.2-8.3-1.3C94.1,51.5,100.5,65.6,108.4,77.4z" />
	</g>
	<path class="st7" d="M468.3,162" />
</svg>