<?xml version="1.0" encoding="utf-8"?>
<!-- Generator: Adobe Illustrator 21.1.0, SVG Export Plug-In . SVG Version: 6.00 Build 0)  -->
<svg version="1.1" id="Layer_1" xmlns="http://www.w3.org/2000/svg" xmlns:xlink="http://www.w3.org/1999/xlink" x="0px" y="0px"
	 viewBox="0 0 514 155" style="enable-background:new 0 0 514 155;" xml:space="preserve">
<style type="text/css">
	.st0{fill:none;stroke:#F26722;stroke-width:2;stroke-miterlimit:10;}
	.st1{fill:none;stroke:#000000;stroke-miterlimit:10;}
	.st2{fill:#F26722;stroke:#F26722;stroke-width:2;stroke-miterlimit:10;}
	.st3{fill:#F26722;stroke:#F26722;stroke-miterlimit:10;}
	.st4{fill:#FFFFFF;stroke:#F26739;stroke-width:2;stroke-miterlimit:10;}
	.st5{fill:none;stroke:#FFFFFF;stroke-miterlimit:10;}
	.st6{fill:#FFFFFF;stroke:#FFFFFF;stroke-miterlimit:10;}
	.st7{fill:#151514;}
	.st8{fill:#F26722;}
	.st9{clip-path:url(#SVGID_2_);}
</style>
<circle class="st0" cx="170.1" cy="77.7" r="63.8"/>
<circle class="st1" cx="170.1" cy="77.7" r="51.4"/>
<path class="st2" d="M221.5,77.7c0,28.4-23,51.4-51.4,51.4c-28.4,0-51.4-23-51.4-51.4c0-28.4,23-51.4,51.4-51.4
	C198.5,26.3,221.5,49.3,221.5,77.7z M170.1,35.2c-23.5,0-42.5,19-42.5,42.5c0,23.5,19,42.5,42.5,42.5c23.5,0,42.5-19,42.5-42.5
	C212.6,54.2,193.6,35.2,170.1,35.2z"/>
<circle class="st3" cx="170.1" cy="77.7" r="6.1"/>
<g>
	<path class="st3" d="M201.6,77.5c-0.3-12.4-8.5-23.8-21-27.6c-2.8-0.8-5.6-1.2-8.3-1.3C187.3,51.6,193.7,65.7,201.6,77.5z"/>
</g>
<circle class="st2" cx="76.9" cy="77.5" r="63.8"/>
<circle class="st1" cx="76.9" cy="77.5" r="51.4"/>
<path class="st4" d="M128.3,77.5c0,28.4-23,51.4-51.4,51.4c-28.4,0-51.4-23-51.4-51.4c0-28.4,23-51.4,51.4-51.4
	C105.3,26.1,128.3,49.2,128.3,77.5z M76.9,35c-23.5,0-42.5,19-42.5,42.5c0,23.5,19,42.5,42.5,42.5c23.5,0,42.5-19,42.5-42.5
	C119.4,54.1,100.4,35,76.9,35z"/>
<circle class="st5" cx="76.9" cy="77.5" r="6.1"/>
<g>
	<path class="st6" d="M108.4,77.4c-0.3-12.4-8.5-23.8-21-27.6c-2.8-0.8-5.6-1.2-8.3-1.3C94.1,51.5,100.5,65.6,108.4,77.4z"/>
</g>
<path class="st7" d="M468.3,162"/>
<polyline class="st8" points="455.1,66.7 432,124.7 440.9,124.7 457.5,82.9 473.9,124.7 478.3,124.7 "/>
<g>
	<defs>
		<rect id="SVGID_1_" x="236.2" y="68" width="193.8" height="58.3"/>
	</defs>
	<clipPath id="SVGID_2_">
		<use xlink:href="#SVGID_1_"  style="overflow:visible;"/>
	</clipPath>
	<g class="st9">
		<path class="st8" d="M428.4,117.8c-2.9,1.4-7.5,2.3-11.9,2.3c-13.8,0-21.7-8.9-21.7-22.7c0-14.8,8.8-23.3,22-23.3
			c4.7,0,8.6,1,11.4,2.3l1.8-6c-1.9-1-6.4-2.5-13.4-2.5C399,68,387,80,387,97.7c0,18.5,12,28.6,27.9,28.6c6.9,0,12.2-1.3,14.9-2.7
			L428.4,117.8z M346.2,122.7c3,2,9,3.6,14.4,3.6c13.3,0,19.8-7.5,19.8-16.3c0-8.3-4.9-12.9-14.4-16.6c-7.8-3-11.2-5.6-11.2-10.9
			c0-3.9,2.9-8.5,10.6-8.5c5.1,0,8.9,1.7,10.7,2.7l2-6c-2.5-1.4-6.7-2.8-12.5-2.8c-11,0-18.3,6.5-18.3,15.3c0,8,5.7,12.7,14.9,16
			c7.6,2.9,10.6,6,10.6,11.2c0,5.7-4.4,9.6-11.8,9.6c-5,0-9.8-1.7-13.1-3.7L346.2,122.7z M329,125.4h7.3V68.9H329V125.4z
			 M318.4,117.8c-2.9,1.4-7.5,2.3-11.9,2.3c-13.8,0-21.7-8.9-21.7-22.7c0-14.8,8.8-23.3,22-23.3c4.7,0,8.6,1,11.4,2.3l1.8-6
			c-1.9-1-6.4-2.5-13.4-2.5C289,68,277,80,277,97.7c0,18.5,12,28.6,27.9,28.6c6.9,0,12.2-1.3,14.9-2.7L318.4,117.8z M236.2,122.7
			c3,2,9,3.6,14.4,3.6c13.3,0,19.8-7.5,19.8-16.3c0-8.3-4.9-12.9-14.4-16.6c-7.8-3-11.2-5.6-11.2-10.9c0-3.9,2.9-8.5,10.6-8.5
			c5.1,0,8.9,1.7,10.7,2.7l2-6c-2.5-1.4-6.7-2.8-12.5-2.8c-11,0-18.3,6.5-18.3,15.3c0,8,5.7,12.7,14.9,16c7.6,2.9,10.6,6,10.6,11.2
			c0,5.7-4.4,9.6-11.8,9.6c-5,0-9.8-1.7-13.1-3.7L236.2,122.7z"/>
	</g>
</g>
</svg>
